<svg width="24" height="16" viewBox="0 0 24 16" fill="none" xmlns="http://www.w3.org/2000/svg">
<path d="M0 2C0 0.895431 0.895431 0 2 0H22C23.1046 0 24 0.895431 24 2V14C24 15.1046 23.1046 16 22 16H2C0.89543 16 0 15.1046 0 14V2Z" fill="#2E0507"/>
<path d="M6.65759 6.59907L6.72492 6.5993L6.77849 6.58106L6.83209 6.56282L6.87948 6.51472L6.9269 6.46666L6.95183 6.40256L6.97682 6.3385L6.97769 6.24416L6.97858 6.14989L6.95641 6.11302L6.9342 6.07619L6.89558 6.05229L6.85692 6.02835H6.69007L6.63327 6.05379L6.57647 6.0792L6.54351 6.11453L6.51055 6.14989L6.48463 6.21091L6.45874 6.27194L6.45385 6.36701L6.44898 6.46208L6.47305 6.50934L6.49718 6.55658L6.5437 6.5777L6.5902 6.59878L6.65759 6.59907ZM17.3952 9.30698H17.6374V9.15872L17.6653 8.97485C17.6807 8.87373 17.706 8.71354 17.7217 8.61898C17.7372 8.52435 17.7567 8.40454 17.7649 8.35261C17.773 8.30074 17.7947 8.18842 17.813 8.10298C17.8313 8.0175 17.8541 7.92515 17.8637 7.89766C17.8734 7.87021 17.8813 7.84138 17.8814 7.83363C17.8816 7.82589 17.9022 7.77603 17.9273 7.72285L17.973 7.62611L18.0334 7.54595L18.0938 7.46582L18.1597 7.41619C18.196 7.38886 18.2544 7.35267 18.2895 7.33568L18.3532 7.3048L18.4919 7.30576L18.6306 7.30675L18.6853 7.32426L18.7399 7.34179L18.7491 7.3361L18.7583 7.3304L18.7588 7.29501C18.759 7.27552 18.7709 7.20307 18.7851 7.13395L18.8111 7.00832L18.7819 6.9969C18.754 6.98653 18.7258 6.9769 18.6973 6.96803L18.6418 6.95053L18.5419 6.95082L18.4421 6.95104L18.3607 6.97971L18.2793 7.00832L18.2181 7.04518L18.157 7.08205L18.0776 7.16528L17.9981 7.24848L17.9554 7.31306C17.932 7.34858 17.9113 7.37603 17.9095 7.37408C17.9077 7.37216 17.9205 7.29814 17.9379 7.20966C17.9553 7.12115 17.9697 7.0375 17.97 7.02378L17.9705 6.99878H17.5599V7.00589C17.5599 7.00976 17.5497 7.08093 17.5371 7.164C17.5246 7.2471 17.4994 7.40746 17.4813 7.52038C17.4595 7.65546 17.4374 7.79046 17.415 7.92544C17.3955 8.04211 17.3751 8.15866 17.3537 8.27498C17.3383 8.35734 17.311 8.50224 17.2929 8.5968C17.2749 8.69142 17.2452 8.84374 17.2271 8.9353L17.1735 9.20435L17.153 9.30698H17.3952ZM11.7709 9.30698H12.0078L12.0149 9.20672C12.0188 9.15165 12.0322 9.04048 12.0447 8.95984C12.0572 8.87917 12.0827 8.71827 12.1014 8.60234C12.1251 8.45898 12.1509 8.31597 12.1788 8.17334C12.2027 8.05341 12.2296 7.93421 12.2387 7.90845C12.2478 7.88266 12.2553 7.85475 12.2553 7.8464C12.2553 7.83802 12.2731 7.79245 12.2948 7.74512C12.3166 7.69779 12.3571 7.62534 12.385 7.5841L12.4356 7.50909L12.5033 7.44637L12.571 7.38371L12.6544 7.34384L12.7379 7.30394L12.8656 7.30464L12.9931 7.30531L13.0559 7.32403C13.0904 7.33434 13.1216 7.34278 13.1252 7.34278C13.1289 7.34278 13.1318 7.33101 13.1318 7.31658C13.1318 7.30218 13.1443 7.22909 13.1596 7.15414C13.1748 7.07923 13.1873 7.01478 13.1873 7.01091C13.1873 7.00704 13.1511 6.99286 13.1069 6.97942C13.0626 6.96598 13.0014 6.9519 12.9709 6.9481L12.9154 6.94125L12.8433 6.95402C12.8036 6.96102 12.7447 6.97651 12.7122 6.98845C12.6798 7.00035 12.6262 7.02736 12.5932 7.04848C12.5602 7.06963 12.5089 7.11078 12.4792 7.13994C12.4493 7.16912 12.3993 7.22797 12.3679 7.27069C12.3434 7.3039 12.3191 7.33718 12.2949 7.37056L12.2791 7.39274L12.2887 7.34838C12.294 7.32394 12.3088 7.24403 12.3215 7.17082C12.3342 7.09757 12.3474 7.02886 12.3506 7.01824L12.3565 6.99878H11.9333V7.02554C11.9333 7.04026 11.9208 7.12886 11.9056 7.2225C11.8903 7.31616 11.8651 7.47264 11.8497 7.5703C11.8342 7.66797 11.8066 7.83776 11.7885 7.94762C11.7692 8.06429 11.7489 8.18086 11.7274 8.29715C11.6856 8.51926 11.6429 8.74122 11.5992 8.96298C11.5805 9.0576 11.5582 9.16928 11.5496 9.2113C11.5409 9.25325 11.5338 9.29194 11.5338 9.29725V9.30701H11.7709V9.30698ZM6.18815 9.30698H6.42684L6.43356 9.28947C6.4373 9.27978 6.44031 9.25446 6.44031 9.23322C6.44031 9.2119 6.45535 9.10115 6.47366 8.98717C6.51554 8.72742 6.55846 8.46781 6.60242 8.20838C6.62127 8.09907 6.64111 7.98992 6.66191 7.88099C6.67958 7.78947 6.70671 7.64714 6.7222 7.56477C6.73766 7.48237 6.76812 7.3256 6.78985 7.21638C6.81158 7.10717 6.83206 7.01347 6.83535 7.00813L6.8414 6.99837L6.60002 7.00134L6.35865 7.00432L6.33849 7.14861C6.32748 7.22797 6.30329 7.38528 6.28479 7.49814C6.26633 7.61107 6.23836 7.78339 6.22265 7.88099C6.20364 7.99773 6.18335 8.11427 6.16185 8.23059C6.14409 8.32515 6.11689 8.46995 6.10137 8.55235C6.08588 8.63478 6.05807 8.77962 6.03958 8.87424C6.02108 8.96886 5.99628 9.09366 5.98444 9.15168C5.97257 9.20966 5.95986 9.26832 5.95615 9.28205L5.94946 9.30698H6.18815ZM3.20329 9.30698H3.47289L3.49225 9.18771C3.50287 9.12208 3.52367 8.99597 3.53842 8.90752L3.59945 8.54128C3.61826 8.42835 3.64649 8.26109 3.66214 8.16957C3.67778 8.07802 3.70268 7.936 3.7174 7.85398C3.73215 7.7719 3.74703 7.70202 3.75042 7.69859L3.75666 7.69238H5.20668L5.21474 7.70042L5.22281 7.70848L5.2102 7.77254C5.20332 7.80781 5.18287 7.91651 5.16479 8.01418C5.14671 8.11184 5.11631 8.27661 5.09721 8.38042C5.07714 8.4896 5.05673 8.59872 5.03596 8.70778C5.0213 8.78403 4.99167 8.94384 4.9701 9.06285C4.94857 9.18186 4.93097 9.28547 4.93103 9.29315L4.93116 9.30698H5.47263L5.4846 9.23766C5.49122 9.19955 5.50178 9.13085 5.50818 9.08509C5.51452 9.03926 5.52991 8.94182 5.5423 8.86864C5.55468 8.79546 5.57942 8.65059 5.5973 8.54682C5.61516 8.44307 5.64511 8.26576 5.6638 8.15286C5.68249 8.03994 5.7102 7.87517 5.72543 7.78669C5.7447 7.67558 5.76476 7.56461 5.78559 7.45376C5.80348 7.35914 5.8333 7.19936 5.85186 7.09862C5.87042 6.99795 5.89817 6.84563 5.91359 6.76016C5.92902 6.67472 5.95711 6.5199 5.97606 6.41616C5.995 6.31242 6.0189 6.19133 6.02918 6.14704L6.04786 6.06659H5.49961L5.49215 6.11933C5.48809 6.14829 5.47484 6.22947 5.46274 6.29965C5.45062 6.36986 5.42866 6.49466 5.41388 6.57706C5.3991 6.65949 5.37209 6.81677 5.35385 6.92666C5.33596 7.03427 5.31874 7.14198 5.3022 7.24982L5.2837 7.37325L4.8813 7.38141L4.47887 7.38954L4.14185 7.38154C3.95647 7.37715 3.80377 7.37264 3.80249 7.37162C3.80124 7.37053 3.80754 7.32742 3.8165 7.27578C3.82831 7.20918 3.84089 7.14275 3.85423 7.07645C3.87126 6.99146 3.8878 6.90637 3.90383 6.82118C3.91935 6.73882 3.93689 6.63645 3.94287 6.59373C3.94882 6.55101 3.96134 6.47984 3.97065 6.43555C3.97996 6.39133 3.99762 6.29811 4.00991 6.22845C4.02217 6.15878 4.03526 6.09386 4.039 6.08419L4.04572 6.06659H3.50188L3.4845 6.16371C3.4749 6.21712 3.46214 6.29325 3.45612 6.33293C3.45007 6.37261 3.42982 6.49994 3.4111 6.6159C3.39238 6.73187 3.36473 6.90416 3.34966 6.99875L3.28876 7.3816C3.26735 7.51494 3.24476 7.64813 3.22105 7.78109C3.2013 7.8903 3.18118 7.99942 3.16066 8.10848C3.14623 8.18477 3.11874 8.32957 3.09954 8.43034C3.07942 8.53584 3.05865 8.64128 3.0373 8.74659C3.02226 8.81984 3.00566 8.9047 3.00041 8.93523C2.9951 8.96573 2.97794 9.05379 2.9622 9.13085C2.94649 9.2079 2.93362 9.27904 2.93362 9.28896V9.30694H3.20329V9.30698ZM19.3463 9.36096L19.4517 9.36234L19.5516 9.34608C19.6066 9.33722 19.6765 9.32282 19.707 9.31421C19.7375 9.30554 19.7925 9.28314 19.829 9.26438L19.8956 9.23027L19.9529 9.17984L20.0102 9.12941L20.0705 9.04902C20.1037 9.0047 20.1337 8.96109 20.1373 8.9519L20.1437 8.93523L20.1381 8.99072C20.1341 9.02784 20.129 9.0649 20.1227 9.10173C20.1174 9.13222 20.1098 9.19091 20.1057 9.2321L20.0984 9.30698H20.5338V9.15722L20.5669 8.87421C20.5851 8.71853 20.6121 8.51133 20.6268 8.41363C20.6416 8.31594 20.6643 8.17619 20.6774 8.10294C20.6904 8.0297 20.7136 7.89734 20.7287 7.80886C20.7439 7.72038 20.7714 7.56554 20.7897 7.46486C20.8081 7.36413 20.8375 7.20435 20.8551 7.10976C20.8726 7.01514 20.8999 6.86781 20.9157 6.78237C20.9315 6.69693 20.9598 6.5471 20.9785 6.44947C20.9982 6.34762 21.0186 6.24586 21.0395 6.14426C21.0543 6.07411 21.0664 6.0129 21.0664 6.00835V6H20.5914L20.5843 6.06938C20.5805 6.10752 20.5623 6.2336 20.544 6.3496C20.5222 6.48653 20.5 6.62336 20.4774 6.76016C20.4642 6.83907 20.4513 6.91798 20.4384 6.99693L20.4324 7.03392L20.4137 7.02595C20.4034 7.02157 20.3475 7.00605 20.2895 6.99149L20.1841 6.96502L20.0398 6.95379L19.8955 6.94256L19.7735 6.95392L19.6514 6.96531L19.5405 6.99338L19.4295 7.02141L19.3241 7.07283L19.2186 7.12426L19.1409 7.18173L19.0633 7.23923L18.9962 7.3112C18.9593 7.35075 18.906 7.41619 18.8777 7.45661L18.8264 7.53008L18.766 7.65558C18.7329 7.72464 18.6925 7.81606 18.6763 7.85878C18.6601 7.90154 18.6316 7.99622 18.6129 8.06925L18.579 8.20205L18.5622 8.37446L18.5455 8.54685L18.5581 8.68554L18.5707 8.82429L18.5855 8.87424C18.5938 8.90166 18.6109 8.95062 18.6238 8.98291L18.6472 9.04179L18.6899 9.09962L18.7327 9.15744L18.7815 9.19738L18.8302 9.23738L18.8968 9.27043C18.9335 9.28854 18.9948 9.31213 19.0333 9.32262C19.0717 9.33318 19.1342 9.34582 19.1721 9.35075C19.21 9.35565 19.2883 9.36029 19.3463 9.36096ZM19.5355 9.04621L19.4517 9.05059L19.3952 9.04042C19.3641 9.03485 19.3144 9.01978 19.2846 9.00704L19.2306 8.9839L19.185 8.94659L19.1396 8.90934L19.072 8.7799L19.0566 8.70778L19.0412 8.63558L19.0425 8.49133L19.0438 8.34707L19.0617 8.21946L19.0796 8.09184L19.1074 8.00307C19.1227 7.95424 19.1353 7.90816 19.1354 7.90067C19.1355 7.89322 19.1506 7.85328 19.169 7.81194C19.1905 7.7641 19.2132 7.7168 19.2371 7.67014C19.2563 7.6335 19.2921 7.57645 19.3166 7.5433C19.3412 7.51014 19.385 7.46019 19.4139 7.43229C19.4428 7.40445 19.4888 7.36784 19.5162 7.35104L19.5658 7.32048L19.6531 7.29027L19.7404 7.26006L19.9235 7.25997H20.1066L20.212 7.28925C20.27 7.30531 20.3316 7.32397 20.3488 7.33069L20.3802 7.34288L20.3741 7.37334C20.3708 7.39011 20.3575 7.46374 20.3448 7.53696C20.3321 7.61021 20.3069 7.75005 20.289 7.84771C20.271 7.94538 20.2434 8.0927 20.2276 8.17507C20.2119 8.25744 20.1891 8.36234 20.1769 8.40806C20.1644 8.45514 20.1518 8.50208 20.1389 8.54899C20.1301 8.58067 20.1091 8.63568 20.0923 8.67104C20.0755 8.70646 20.0461 8.75792 20.027 8.78534C20.0078 8.81283 19.9755 8.85091 19.9551 8.86992C19.9347 8.88899 19.8905 8.92278 19.857 8.94512L19.7959 8.9857L19.6195 9.0417L19.5355 9.04621ZM15.5954 9.35702L15.7452 9.3527L15.8395 9.32858L15.9338 9.30438L15.9949 9.27558C16.0285 9.25978 16.0834 9.22838 16.1169 9.20595C16.1505 9.18358 16.2025 9.14096 16.2324 9.11126C16.2623 9.08157 16.3067 9.03094 16.331 8.99875C16.3554 8.9665 16.3767 8.94163 16.3785 8.94342C16.3803 8.94525 16.3747 8.99648 16.366 9.05741C16.3574 9.1184 16.3503 9.19946 16.3501 9.2376L16.3499 9.30691H16.7573L16.7635 9.14886L16.7697 8.99069L16.7987 8.78538C16.8147 8.67245 16.8406 8.50518 16.8562 8.41363C16.8717 8.32214 16.8987 8.16733 16.9163 8.06963C16.9338 7.97197 16.9615 7.81968 16.9779 7.73117L17.0077 7.57027L17.0087 7.4313L17.0097 7.29229L16.9783 7.22806L16.9469 7.16381L16.9043 7.12291L16.8616 7.08198L16.7917 7.04656L16.7217 7.01107L16.5131 6.96467L16.3696 6.95376L16.226 6.94285L16.0411 6.9543C15.9393 6.96058 15.7962 6.97299 15.723 6.98192L15.5898 6.99805L15.4083 6.99875L15.3951 7.06259C15.3878 7.09766 15.3676 7.18102 15.3502 7.24787C15.3328 7.31469 15.3202 7.37094 15.3222 7.37293C15.3241 7.37491 15.3727 7.36387 15.43 7.34845C15.4874 7.33299 15.6092 7.30765 15.7008 7.29203L15.8672 7.26368L16.017 7.25754L16.1669 7.25133L16.3599 7.28518L16.4243 7.31696L16.4887 7.34877L16.5248 7.40253L16.5609 7.45626L16.5603 7.54099L16.5598 7.62576L16.5407 7.71875L16.5215 7.81178L16.1222 7.81322L15.7229 7.81462L15.5922 7.85046C15.5204 7.87018 15.4408 7.89635 15.4154 7.90861C15.39 7.9209 15.3646 7.93094 15.3589 7.93094C15.3533 7.93094 15.3105 7.95462 15.2639 7.98365L15.1792 8.03629L15.1124 8.10291C15.0757 8.13955 15.0288 8.1945 15.0082 8.22499C14.9876 8.25549 14.9541 8.31923 14.9338 8.36669L14.8969 8.45286L14.88 8.54973L14.863 8.64666V8.85002L14.8792 8.93466L14.8954 9.0193L14.9254 9.07456C14.9419 9.10486 14.9723 9.14938 14.9928 9.17338L15.0302 9.21706L15.0965 9.25738L15.1629 9.2977L15.2389 9.31914C15.2807 9.33094 15.3442 9.34531 15.3802 9.35101L15.4456 9.36131L15.5954 9.35699V9.35702ZM15.7341 9.04672L15.6453 9.05136L15.5865 9.03635C15.5542 9.02816 15.5051 9.00979 15.4775 8.99562L15.4273 8.96973L15.3998 8.93715C15.3848 8.91917 15.3618 8.88397 15.3486 8.85885L15.3249 8.81315L15.3202 8.70653L15.3155 8.59984L15.3343 8.5351C15.3447 8.49955 15.369 8.43773 15.3883 8.39786L15.4234 8.32534L15.4908 8.25853L15.558 8.19171L15.6295 8.15731L15.7009 8.12294L15.7896 8.10182L15.8784 8.08074H16.4333L16.4508 8.088L16.4684 8.09523L16.4536 8.18234C16.4455 8.23021 16.4261 8.31683 16.4105 8.37485C16.395 8.43283 16.3675 8.51805 16.3495 8.56422C16.3315 8.61046 16.3168 8.6513 16.3168 8.65498C16.3168 8.65872 16.2985 8.69235 16.2762 8.72979L16.2357 8.79786L16.1691 8.86381C16.1326 8.90006 16.0986 8.9297 16.0937 8.9297C16.0888 8.9297 16.0663 8.94227 16.0438 8.9575L16.0029 8.98518L15.9129 9.0137L15.8229 9.04214L15.7341 9.04672ZM13.77 9.36115L13.8921 9.36246L14.0307 9.34602C14.107 9.33702 14.2085 9.32202 14.2563 9.3127C14.3141 9.30109 14.3715 9.28746 14.4283 9.2719C14.4751 9.25866 14.5175 9.24435 14.5224 9.24016C14.5274 9.2359 14.5405 9.18554 14.5518 9.12822C14.563 9.07091 14.5771 8.99405 14.5832 8.95747C14.5892 8.92083 14.5923 8.8889 14.5901 8.88653C14.5879 8.8841 14.5797 8.8872 14.5719 8.89334C14.5642 8.89958 14.5097 8.92246 14.4509 8.94429L14.3441 8.98397L14.1919 9.01347L14.0397 9.04291L13.9104 9.03853L13.781 9.03408L13.7075 9.00858L13.634 8.98307L13.5772 8.93344L13.5205 8.88374L13.4828 8.8151L13.4451 8.74653L13.4271 8.65472L13.4092 8.56298L13.4093 8.4439L13.4094 8.32483L13.4312 8.18058L13.453 8.03629L13.4761 7.95859C13.4888 7.91587 13.5032 7.86595 13.508 7.84765C13.5129 7.82931 13.5332 7.7769 13.5532 7.7311C13.5732 7.68534 13.609 7.61459 13.6326 7.57389L13.6755 7.49994L13.7283 7.44525L13.781 7.39056L13.8369 7.35594L13.8928 7.32128L13.9645 7.29917C14.004 7.28701 14.0737 7.27123 14.1195 7.26413L14.2027 7.25114L14.3248 7.25728L14.4468 7.26339L14.5911 7.29229L14.7354 7.32112L14.794 7.34301C14.8263 7.35504 14.8541 7.36493 14.8559 7.36493C14.8576 7.36493 14.8653 7.32371 14.873 7.27334C14.8808 7.22301 14.8946 7.14016 14.9036 7.08928C14.9128 7.03834 14.918 6.9945 14.9153 6.99184C14.9126 6.98915 14.8693 6.98227 14.819 6.97654C14.7686 6.97082 14.6318 6.96064 14.515 6.95389L14.3026 6.9417L14.1527 6.95318L14.0029 6.9647L13.8919 6.988L13.781 7.01133L13.7095 7.0399C13.6702 7.05562 13.6126 7.084 13.5816 7.10294C13.5518 7.12106 13.5225 7.13994 13.4937 7.15958C13.4764 7.17181 13.4241 7.21942 13.3773 7.26544L13.2923 7.34909L13.2449 7.41859C13.2188 7.45683 13.1737 7.53651 13.1446 7.59574L13.0917 7.70339L13.0512 7.81987C13.0289 7.88397 12.9978 7.98883 12.982 8.05293L12.9534 8.16944L12.943 8.27488L12.9326 8.38032L12.9327 8.51901L12.9329 8.6577L12.9433 8.73843L12.9538 8.8191L12.987 8.90211L13.0202 8.98512L13.0587 9.04512L13.097 9.10512L13.158 9.16525L13.2191 9.22531L13.2837 9.25949L13.3483 9.29354L13.4331 9.31715C13.4797 9.33008 13.5472 9.34496 13.5829 9.35014C13.6187 9.35539 13.7029 9.36026 13.7701 9.36102H13.77V9.36115ZM10.241 9.36109L10.3631 9.36246L10.4851 9.35133C10.5523 9.34522 10.6621 9.33245 10.7292 9.32294C10.7964 9.3135 10.9124 9.29232 10.987 9.27594L11.1227 9.24611L11.1295 9.19606C11.1331 9.16858 11.1484 9.08669 11.1633 9.01411L11.1904 8.88211L11.1844 8.87616L11.1784 8.87021L11.137 8.89021C11.1141 8.90122 11.0431 8.92752 10.9791 8.94858L10.8626 8.98688L10.7405 9.01062L10.6183 9.03424L10.4241 9.03469L10.2299 9.03501L10.1633 9.01376C10.1267 9.00208 10.0729 8.9807 10.0436 8.96621L9.99055 8.93997L9.9029 8.8607L9.8687 8.80096L9.83449 8.74115L9.81305 8.66621L9.79161 8.5912L9.79148 8.45245L9.79132 8.3137L9.81033 8.18995L9.82943 8.06614L10.1634 8.05053L10.7807 8.05453L11.398 8.05846L11.4166 7.97942C11.4269 7.93594 11.4426 7.84605 11.4514 7.77968L11.4676 7.65898L11.468 7.55747L11.4684 7.45594L11.4508 7.38013L11.4332 7.30435L11.4041 7.25418C11.3882 7.22659 11.36 7.18659 11.3416 7.16528C11.3231 7.144 11.2902 7.11398 11.2684 7.09859C11.2466 7.0832 11.2038 7.05731 11.1732 7.04109L11.1178 7.01158L11.0209 6.98822L10.9239 6.9649L10.8045 6.95347L10.685 6.94205L10.5741 6.94928L10.4631 6.95648L10.3299 6.98205L10.1968 7.00765L10.1135 7.0409C10.0677 7.05917 9.99782 7.09258 9.95817 7.11507C9.91849 7.13757 9.86358 7.17418 9.83615 7.19642C9.80863 7.21869 9.76105 7.26195 9.73042 7.29258C9.69977 7.32323 9.65439 7.37821 9.62969 7.41485C9.60492 7.45149 9.56697 7.51638 9.54527 7.5591C9.52364 7.60186 9.49545 7.66176 9.48262 7.69229C9.46985 7.72278 9.44649 7.78522 9.43087 7.83098C9.41519 7.87677 9.39055 7.96416 9.37618 8.02522C9.35922 8.09917 9.34457 8.1736 9.33225 8.24845L9.31452 8.36077L9.31471 8.52589L9.3149 8.69101L9.33174 8.76314C9.34098 8.80282 9.35878 8.86275 9.37113 8.89632C9.38348 8.92989 9.40646 8.97981 9.4221 9.00733C9.43772 9.03475 9.47113 9.07894 9.49628 9.10557C9.5214 9.13213 9.567 9.17251 9.59753 9.1952C9.62799 9.21789 9.68233 9.24989 9.7182 9.26621L9.78345 9.2959L9.87442 9.31792C9.92444 9.33005 9.99996 9.34435 10.0422 9.34979C10.0844 9.35523 10.1739 9.36035 10.241 9.36109ZM10.45 7.79779C10.1428 7.79779 9.89145 7.79562 9.89145 7.7929C9.89145 7.79024 9.90457 7.75152 9.9206 7.70688C9.9366 7.66227 9.96476 7.5959 9.9831 7.55936L10.0165 7.4929L10.0899 7.4199L10.1633 7.34685L10.2355 7.31238C10.2751 7.29341 10.3276 7.27274 10.352 7.26646C10.3764 7.26019 10.4463 7.25187 10.5073 7.248L10.6183 7.24086L10.7036 7.25184L10.7888 7.26278L10.8507 7.29114L10.9127 7.31949L10.9466 7.35613C10.9653 7.37626 10.9875 7.40592 10.9961 7.42202L11.0116 7.45133L11.0218 7.51635L11.0321 7.58138L11.0203 7.68957L11.0086 7.79779H10.45ZM7.14793 10.339L7.15465 10.3215C7.15839 10.3118 7.1614 10.2892 7.1614 10.271C7.1614 10.253 7.16927 10.1872 7.1789 10.125C7.1885 10.0626 7.21103 9.9193 7.22902 9.80643C7.24697 9.6935 7.27385 9.52368 7.28876 9.42912C7.30294 9.33949 7.31641 9.24979 7.32924 9.16C7.33657 9.10656 7.3455 9.06288 7.34911 9.06288C7.3527 9.06288 7.36812 9.0865 7.38338 9.11533L7.4111 9.16778L7.4726 9.22979L7.53414 9.29181L7.60985 9.32211L7.68559 9.35242L7.77583 9.3641L7.8661 9.37578L7.98063 9.36877L8.09519 9.3617L8.21922 9.32963L8.34329 9.2975L8.40985 9.26714C8.44649 9.25046 8.51138 9.21395 8.5541 9.18614L8.6318 9.13558L8.70422 9.06314C8.74406 9.02339 8.80025 8.95952 8.82905 8.92125C8.85791 8.88307 8.8815 8.84899 8.8815 8.84563C8.8815 8.84221 8.89567 8.81856 8.91298 8.79299C8.9303 8.76749 8.96569 8.69661 8.99167 8.63562C9.01769 8.57462 9.05826 8.46474 9.08194 8.39149L9.12495 8.2583L9.14719 8.14298C9.15942 8.07955 9.17516 7.97469 9.18217 7.90992L9.19487 7.79226L9.18751 7.69238L9.18018 7.59251L9.15698 7.49261L9.13385 7.39274L9.09634 7.31798L9.05887 7.2432L8.98646 7.16643L8.91407 7.08966L8.74274 7.00115L8.64841 6.97853L8.55407 6.95597L8.45974 6.94906L8.36543 6.94214L8.26038 6.95421L8.15526 6.96627L8.06953 6.98819L7.98377 7.01005L7.90924 7.04458C7.86828 7.06349 7.80863 7.09571 7.77676 7.11613C7.74486 7.13654 7.71193 7.16 7.70361 7.16829C7.69532 7.17658 7.67538 7.19197 7.65938 7.2024L7.63023 7.2215L7.65058 7.124C7.66182 7.0704 7.67116 7.02032 7.67142 7.01264L7.67186 6.99878H7.26495L7.2293 7.22352C7.20966 7.34714 7.17868 7.53811 7.16044 7.648C7.12022 7.89037 7.07951 8.13264 7.03833 8.37485C7.02018 8.4816 6.9902 8.65142 6.97167 8.75216C6.95314 8.85283 6.92604 9.00016 6.91138 9.07952C6.89676 9.15885 6.86918 9.30864 6.85017 9.41238C6.82774 9.5345 6.80508 9.65658 6.7822 9.77862C6.76054 9.89338 6.73839 10.008 6.71583 10.1226C6.69766 10.2141 6.68012 10.3003 6.67676 10.314L6.67071 10.339H7.14793V10.339ZM7.8439 9.0616L7.78335 9.05085L7.72278 9.04016L7.66127 9.0121L7.59974 8.98403L7.55679 8.94298L7.51382 8.90198L7.48902 8.8465C7.47535 8.816 7.45785 8.76413 7.45007 8.73123L7.43593 8.67155L7.44159 8.57594L7.44729 8.48032L7.47586 8.3305C7.49743 8.21594 7.51836 8.10125 7.53858 7.9865C7.55737 7.87968 7.58585 7.72314 7.60182 7.63869L7.63084 7.48509L7.69446 7.43216C7.72946 7.40307 7.78489 7.36403 7.81766 7.34547L7.87718 7.31168L7.95484 7.28765L8.03254 7.26358L8.23228 7.25187L8.31362 7.26922L8.39494 7.28653L8.45234 7.31296L8.50972 7.33939L8.55785 7.38778L8.60601 7.43616L8.63193 7.48739C8.64623 7.51558 8.6663 7.57072 8.6765 7.60995L8.6951 7.68128L8.6894 7.89216L8.6837 8.10301L8.65522 8.22765C8.63954 8.29622 8.60972 8.40109 8.58892 8.46064L8.55113 8.56909L8.50479 8.65683C8.47932 8.70515 8.44006 8.77034 8.41753 8.80176C8.395 8.83318 8.35906 8.87402 8.33769 8.89232C8.3118 8.91434 8.2853 8.93558 8.2582 8.95606L8.21753 8.98643L8.02918 9.0505L7.8439 9.0616Z" fill="#FAD1D3"/>
</svg>
